<?xml version="1.0" encoding="utf-8"?>
<!-- Generator: Adobe Illustrator 19.2.1, SVG Export Plug-In . SVG Version: 6.00 Build 0)  -->
<svg version="1.1" id="layer" xmlns="http://www.w3.org/2000/svg" xmlns:xlink="http://www.w3.org/1999/xlink" x="0px" y="0px"
	 viewBox="0 0 652 652" style="enable-background:new 0 0 652 652;" xml:space="preserve">
<rect x="116.1" y="288.7" width="20.7" height="77.5" fill="#FFFFFF"/>
<path d="M259,288.9h25.4l29.9,77.8h-22.7l-5.8-16.6h-29.1l-6.2,16.6h-21.1L259,288.9 M271.6,305h-0.2l-10,30.3h19.5L271.6,305z" fill="#FFFFFF"/>
<path d="M322.8,288.9h35.7c14.6,0,25.3,6.4,25.3,19.7c0,9.8-5,15.3-13.6,18.2v0.3c10.4,2.1,15.7,7.7,15.7,17.2
	c0,18.6-16.3,22.5-30.3,22.5h-32.7V288.9 M343.5,352h6.1c7.5,0,15.4-1.1,15.4-9c0-8.5-8.1-9.3-15.2-9.3h-6.3V352 M343.5,319.7h5.8
	c6.8,0,13.7-1.7,13.7-8.3c0-7.1-6.6-7.8-13.5-7.8h-6V319.7z" fill="#FFFFFF"/>
<polyline points="414.6,337.4 385.7,288.9 409.6,288.9 424.9,320.2 439.9,288.9 463.8,288.9 435.3,337.4 435.3,366.7 414.6,366.7 
	414.6,337.4 " fill="#FFFFFF"/>
<polyline points="488.8,304.3 469.6,304.3 469.6,288.9 528.7,288.9 528.7,304.3 509.5,304.3 509.5,366.7 488.8,366.7 488.8,304.3 
	" fill="#FFFFFF"/>
<polyline points="537.6,288.9 592.5,288.9 592.5,303.7 558.3,303.7 558.3,319.7 590.6,319.7 590.6,334.4 558.3,334.4 558.3,352 
	593.7,352 593.7,366.7 537.6,366.7 537.6,288.9 " fill="#FFFFFF"/>
<path d="M69.9,304.6c-13.7,1.1-21.3,10.2-21.3,21.9c0,11.4,10.6,21,20.7,21l2.2,0h3.8c0,0,2.5,0,2.5-2.4v-24.4h21.3
	c0,13.7-0.1,44.7-0.1,44.7s-20.9,0-33.1,0c-22.9,0-39.3-19-39.3-38.8c0-21.5,17.8-39.4,40-38.6l31.7,0.1v16.6H69.9" fill="#FFFFFF"/>
<path d="M191.6,304.6c-13.8,1.1-21.3,10.2-21.3,21.9c0,11.4,10.5,21,20.8,21l2.2,0h3.7c0,0,2.5,0,2.5-2.4v-24.4h21.2
	c0,13.7,0,44.7,0,44.7s-21,0-33.1,0c-22.9,0-39.2-19-39.2-38.8c0-21.5,17.7-39.4,40-38.6L220,288l0,16.6H191.6" fill="#FFFFFF"/>
<polyline points="606.2,291.3 602.5,291.3 602.5,289.8 611.8,289.8 611.8,291.3 608,291.3 608,301.8 606.2,301.8 606.2,291.3 " fill="#FFFFFF"/>
<polyline points="613.5,289.8 616.3,289.8 620.1,299.8 623.8,289.8 626.7,289.8 626.7,301.8 624.9,301.8 624.9,291.4 624.9,291.4 
	620.9,301.8 619.2,301.8 615.3,291.4 615.2,291.4 615.2,301.8 613.5,301.8 613.5,289.8 " fill="#FFFFFF"/>
</svg>
